<svg width="96" height="96" viewBox="0 0 96 96" fill="none" xmlns="http://www.w3.org/2000/svg">
  <path d="M48 80C42.2 64.8 43.8 48.9 52.8 35.6C60.2 24.7 72 17.8 86 14C85.4 29.9 80.9 43.2 72.6 53.8C64.5 64 56.1 70.7 48 80Z" fill="#3DBD93"/>
  <path d="M48 80C39.5 70.2 31.8 62.6 25.3 52.6C18.6 42.1 15.1 29.8 14 16C28.1 19.7 39.8 26.3 47 36.6C55.4 48.8 56.4 64.5 48 80Z" fill="#6FD3B0"/>
  <path d="M48 80C48.9 62.2 51.8 47.1 58.9 33.4" stroke="#F8F7F4" stroke-width="4" stroke-linecap="round"/>
  <path d="M48 80C45.9 64.3 41.2 50.2 32.9 37.7" stroke="#F8F7F4" stroke-width="4" stroke-linecap="round"/>
  <path d="M48 80V88" stroke="#3DBD93" stroke-width="5" stroke-linecap="round"/>
</svg>
